<?xml version="1.0" encoding="utf-8"?>
<!-- Generator: Adobe Illustrator 19.0.0, SVG Export Plug-In . SVG Version: 6.00 Build 0)  -->
<svg version="1.1" id="Layer_1" xmlns="http://www.w3.org/2000/svg" xmlns:xlink="http://www.w3.org/1999/xlink" x="0px" y="0px"
	 viewBox="-43 166.9 508 508" style="enable-background:new -43 166.9 508 508;" xml:space="preserve">
<style type="text/css">
	.st0{fill:#FD8469;}
	.st1{fill:#84DBFF;}
	.st2{fill:#FFFFFF;}
	.st3{fill:#54C0EB;}
	.st4{fill:#324A5E;}
</style>
<rect x="-43" y="166.9" class="st0" width="508" height="508"/>
<g>
	<path class="st1" d="M212.2,529.7c-0.4,0-0.8,0.4-1.2,0.4s-0.8-0.4-1.2-0.4H212.2z"/>
	<path class="st1" d="M13.8,580.9c33.2-44.4,84-66.4,125.6-77.2c-3.2,26.4,10.4,61.6,10.8,60.8c14-32,60.8-34.8,60.8-34.8
		s46.8,2.8,60.4,34.8c0.4,0.8,14.4-34.4,10.8-60.8c42,10.8,93.2,32.8,126,77.2"/>
</g>
<path class="st2" d="M268.2,478.9c0,0,0,0,0,0.4c0,4-2,29.6-56,50h-2.4c-54-20.4-56-46-56-50c0-0.4,0-0.4,0-0.4
	c0-5.2,1.2-10.4,2.4-15.6c15.6,19.6,34.4,32.8,54.8,32.8s39.2-13.2,54.8-32.8C267,468.5,268.2,473.7,268.2,478.9z"/>
<g>
	<path class="st3" d="M268.2,478.9c0,0,2.8,28.8-57.2,51.2c0,0,46.8,2.8,60.4,34.8C272.2,565.7,299,496.1,268.2,478.9z"/>
	<path class="st3" d="M153.8,478.9c-30.8,17.2-4,86.8-3.2,85.6c14-32,60.4-34.8,60.4-34.8C151,507.7,153.8,478.9,153.8,478.9z"/>
</g>
<g>
	<path class="st2" d="M295,377.7c-3.6,24.8-14.4,48-32.4,65.6c-3.6,3.6-6.8,6.4-10.8,9.2l-6.4-20.4h-68.8l-6.4,20.4
		c-12.8-9.6-39.6-36.4-40-61.6C119,247.3,229,277.7,229,277.7C303,272.5,300.6,337.7,295,377.7z"/>
	<path class="st2" d="M309.8,403.7c-5.6,9.2-13.2,15.6-20.4,18c2.8-6.4,5.2-13.2,7.2-20c0,0,0,0,0-0.4c1.6-6,3.2-12,4.8-18H301
		c1.6-6,3.2-12,4.4-18c1.6,0,3.2,0.8,4.8,1.6C319,372.5,318.6,388.9,309.8,403.7z"/>
	<path class="st2" d="M132.6,421.7c-7.2-2.4-14.8-8.8-20.4-18c-9.2-14.8-9.2-31.2-0.4-36.4c0.8-0.4,1.2-0.8,2-0.8
		c4.8,18.8,10.4,32.8,11.6,35.6C127.4,408.5,129.8,415.3,132.6,421.7z"/>
</g>
<path id="SVGCleanerId_0" class="st4" d="M254.6,237.7c3.2-36.8-55.2-34.4-55.2-34.4c-88.4,12.8-98,95.2-98,95.2l12-14.4
	c-18.8,41.2,9.6,112,12,117.6c14.8,49.2,47.6,94.4,85.6,94.4s70.8-45.2,85.6-94.4l0,0c0,0,0,0,0-0.4c1.6-6,3.2-12,4.4-18h-0.4
	c8-32,16.8-64.4,16.8-64.4C340.2,204.1,254.6,237.7,254.6,237.7z M295,377.7c-3.6,24.8-14.4,48-32.4,65.6c-3.6,3.6-7.2,6.4-10.8,9.2
	l-6.4-20h-68.8l-6.4,20.4c-12.8-9.6-23.6-22.8-32.4-38c-4-8-6.4-16.4-7.6-23.6C119,247.7,229,278.1,229,278.1
	C303,272.5,300.6,337.7,295,377.7z"/>
<g>
	<path id="SVGCleanerId_0_1_" class="st4" d="M254.6,237.7c3.2-36.8-55.2-34.4-55.2-34.4c-88.4,12.8-98,95.2-98,95.2l12-14.4
		c-18.8,41.2,9.6,112,12,117.6c14.8,49.2,47.6,94.4,85.6,94.4s70.8-45.2,85.6-94.4l0,0c0,0,0,0,0-0.4c1.6-6,3.2-12,4.4-18h-0.4
		c8-32,16.8-64.4,16.8-64.4C340.2,204.1,254.6,237.7,254.6,237.7z M295,377.7c-3.6,24.8-14.4,48-32.4,65.6
		c-3.6,3.6-7.2,6.4-10.8,9.2l-6.4-20h-68.8l-6.4,20.4c-12.8-9.6-23.6-22.8-32.4-38c-4-8-6.4-16.4-7.6-23.6
		C119,247.7,229,278.1,229,278.1C303,272.5,300.6,337.7,295,377.7z"/>
</g>
<path class="st4" d="M254.6,237.7c3.2-36.8-55.2-34.4-55.2-34.4c-88.4,12.8-98,95.2-98,95.2l12-14.4c-18.8,41.2,9.6,112,12,117.6
	c14.8,49.2,47.6,94.4,85.6,94.4s70.8-45.2,85.6-94.4l0,0c0,0,0,0,0-0.4c1.6-6,3.2-12,4.4-18h-0.4c8-32,16.8-64.4,16.8-64.4
	C340.2,204.1,254.6,237.7,254.6,237.7z M295,377.7c-3.6,24.8-14.4,48-32.4,65.6c-3.6,3.6-7.2,6.4-10.8,9.2l-6.4-20h-68.8l-6.4,20.4
	c-12.8-9.6-39.6-36.4-40-61.6C119,247.7,229,278.1,229,278.1C303,272.5,300.6,337.7,295,377.7z"/>
<path class="st2" d="M183,446.1c6.8,7.6,16.8,12.8,28,12.8c11.2,0,21.2-4.8,28-12.8H183z"/>
<path class="st1" d="M430.7,675.9c0.4-20-2.2-65.2-29.8-104.2H21.2c0,0-28.9,39.8-26.7,104.2H430.7z"/>
</svg>
