<svg xmlns="http://www.w3.org/2000/svg" xmlns:xlink="http://www.w3.org/1999/xlink" id="Capa_1" x="0" y="0" enable-background="new -74 -25.7 450.7 450.7" version="1.1" viewBox="-74 -25.7 450.7 450.7" xml:space="preserve"><style type="text/css">.st0{fill:#12ade4}</style><g><g><path d="M80.9,183.8c1.2,0.9,2.2,2,3.2,3.2c2.8,3.4,7.8,4,11.2,1.2c1.9-1.5,3-3.8,3-6.3v-60.4c0-4.4-3.6-8-8-8 c0,0-0.1,0-0.1,0H45.6c1.9-4.4,2.8-9.1,2.8-13.9c-0.9-20-17.9-35.5-38-34.6c-18.7,0.9-33.7,15.9-34.6,34.6c0,4.8,0.9,9.5,2.8,13.9 H-66c-4.4,0-8,3.6-8,8V182c0,4.4,3.5,8,8,8c2.4,0,4.7-1.1,6.3-3c7-8.8,19.8-10.3,28.6-3.3s10.3,19.8,3.3,28.6s-19.8,10.3-28.5,3.3 c-1.2-1-2.3-2.1-3.3-3.3c-2.8-3.4-7.8-4-11.2-1.2c-1.9,1.5-3,3.8-3,6.3v60.5c0,4.4,3.6,8,8,8h43.9c-6.7,18.9,3.2,39.7,22.1,46.4 s39.7-3.2,46.4-22.1c2.8-7.8,2.8-16.4,0-24.2h43.9c4.4,0,8-3.6,8-8v-60.6c0-4.4-3.5-8-8-8c-2.4,0-4.7,1.1-6.3,3 c-7,8.7-19.7,10.1-28.4,3.2c-8.7-7-10.1-19.7-3.2-28.4C59.4,178.3,72.2,176.8,80.9,183.8z M64.9,235.9c1.1,0.1,2.3,0.1,3.4,0 c4.8,0,9.5-0.9,13.9-2.8v36.6H32c-4.4,0-8,3.6-8,8c0,2.1,0.9,4.2,2.4,5.6c8,7.9,8.1,20.8,0.2,28.7c-7.9,8-20.8,8.1-28.7,0.2 s-8.1-20.8-0.2-28.7c0.1-0.1,0.1-0.1,0.2-0.2c3.1-3.1,3.2-8.2,0-11.3c-1.5-1.5-3.5-2.4-5.6-2.4H-58v-36.6 c4.4,1.9,9.1,2.8,13.9,2.8C-24,235-8.6,218-9.5,198c-0.9-18.7-15.9-33.7-34.6-34.6c-4.8,0-9.5,0.9-13.9,2.8v-36.6h52.5 c4.4-0.1,7.9-3.8,7.8-8.2c-0.1-2.4-1.2-4.6-3-6c-8.8-7-10.3-19.8-3.3-28.6s19.8-10.3,28.5-3.3s10.3,19.8,3.3,28.5 c-1,1.2-2.1,2.3-3.3,3.3c-3.4,2.8-4,7.8-1.2,11.2c1.5,1.9,3.8,3,6.3,3h52.5l0.2,36.6c-4.4-1.9-9.1-2.8-13.9-2.8 c-20-0.9-37,14.5-38,34.6C29.4,218,44.9,235,64.9,235.9z" class="st0"/></g></g><g><g><g><path d="M352.5,164.5c-3.9-1.4-8-2.1-12.1-2.1c-4.1,0-8.2,0.7-12.1,2.1v-43.9c0-4.4-3.6-8-8-8h-60.5 c-4.4,0-8,3.6-7.9,8.1c0,2.4,1.1,4.6,2.9,6.1c8.8,7,10.3,19.7,3.3,28.5c-7,8.8-19.7,10.3-28.5,3.3s-10.3-19.7-3.3-28.5 c1-1.2,2.1-2.4,3.3-3.3c3.4-2.8,4-7.8,1.2-11.2c-1.5-1.9-3.8-3-6.3-3H164c-4.4,0-8,3.6-8,8v44.6c-4.4-1.9-9.1-2.8-13.9-2.8 c-20,0.9-35.5,17.9-34.6,38c0.9,18.7,15.9,33.7,34.6,34.6c4.8,0,9.5-0.9,13.9-2.8v44.6c0,4.4,3.6,8,8,8h60.6c4.4,0,8-3.6,8-8 c0-2.8-1.5-5.4-3.9-6.9c-8.4-7.4-9.3-20.2-1.9-28.7s20.2-9.3,28.7-1.9s9.3,20.2,1.9,28.7c-0.8,0.9-1.7,1.8-2.7,2.5 c-3.4,2.8-4,7.8-1.2,11.2c1.5,1.9,3.8,3,6.3,3h60.5c4.4,0,8-3.6,8-8V233c18.9,6.7,39.7-3.2,46.4-22.1S371.4,171.2,352.5,164.5z M354.4,213.3c-3.8,3.8-8.9,5.9-14.2,5.9l0.1-0.2c-5.4,0-10.6-2.1-14.4-6c-3.1-3.1-8.2-3.2-11.3,0c-1.5,1.5-2.4,3.5-2.4,5.6v50.2 h-36.7c1.9-4.5,2.9-9.2,2.9-14.1c-0.9-20-17.9-35.5-38-34.6c-18.7,0.9-33.7,15.9-34.6,34.6c0,4.8,0.9,9.5,2.8,13.9H172v-52.2 c0-4.4-3.5-8-8-8c-2.4,0-4.7,1.1-6.3,3c-7,8.8-19.8,10.3-28.6,3.3s-10.3-19.8-3.3-28.6s19.8-10.3,28.6-3.3c1.2,1,2.3,2.1,3.3,3.3 c2.8,3.4,7.8,4,11.2,1.2c1.9-1.5,3-3.8,3-6.3v-52.5h36.6c-1.9,4.5-2.9,9.3-2.9,14.2c-0.9,20,14.5,37,34.6,38s37-14.5,38-34.6 c0.1-1.1,0.1-2.3,0-3.4c0-4.8-0.9-9.5-2.8-13.9h36.6v50.2c0,4.4,3.6,8,8,8c2.1,0,4.2-0.9,5.6-2.4c7.9-7.9,20.7-7.9,28.6,0 C362.4,192.6,362.4,205.4,354.4,213.3z" class="st0"/><path d="M340.3,162.4L340.3,162.4L340.3,162.4z" class="st0"/></g></g></g></svg>