<?xml version="1.0" encoding="utf-8"?>
<!-- Generator: Adobe Illustrator 19.0.0, SVG Export Plug-In . SVG Version: 6.00 Build 0)  -->
<svg version="1.1" id="Capa_1" xmlns="http://www.w3.org/2000/svg" xmlns:xlink="http://www.w3.org/1999/xlink" x="0px" y="0px"
	 viewBox="-87 -12.2 424.2 424.2" style="enable-background:new -87 -12.2 424.2 424.2;" xml:space="preserve">
<style type="text/css">
	.st0{fill:#12ADE4;}
</style>
<g>
	<g>
		<path class="st0" d="M329.2,45.6c-0.3,0-0.7,0-1,0.1v-0.1L158.1,66.2L-12,45.6c-4.4-0.5-8.4,2.6-8.9,7c0,0.3-0.1,0.7-0.1,1v116.7
			c-24.5,26.9-25.6,67.8-2.6,96l-60.7,60.6c-3.4,2.9-3.7,7.9-0.9,11.3s7.9,3.7,11.3,0.9c0.3-0.3,0.6-0.6,0.9-0.9l51.9-51.9v39.4
			c0,4.1,3,7.5,7,8l171.3,20.7h1.9l170.9-20.7c4-0.5,7.1-3.9,7-8v-272C337.2,49.2,333.6,45.6,329.2,45.6z M-7.8,179.5
			c0.2-0.2,0.3-0.3,0.5-0.5c22.4-22.4,58.8-22.4,81.2,0s22.4,58.8,0,81.2c-22.4,22.4-58.8,22.4-81.2,0
			C-29.8,238.1-30,201.9-7.8,179.5z M150.1,337.4l-155-18.8v-36.4c34.6,21.2,79.8,10.3,101-24.3s10.3-79.8-24.3-101
			c-23.5-14.4-53.1-14.4-76.7,0V62.5l155,18.8V337.4z M321.2,318.6l-155,18.8v-256l155-18.8V318.6z"/>
	</g>
</g>
<g>
	<g>
		<path class="st0" d="M126.3,123.8l-112-13.6c-4.4-0.5-8.4,2.6-9,7s2.6,8.4,7,9h0.2l112,13.6h0.7c4.4,0.3,8.2-3.1,8.5-7.5
			C134.1,127.9,130.7,124.1,126.3,123.8z"/>
	</g>
</g>
<g>
	<g>
		<path class="st0" d="M307.7,117.2c-0.5-4.4-4.5-7.6-9-7l-112,13.6c-4.4,0.3-7.8,4.1-7.5,8.5s4.1,7.8,8.5,7.5l0,0h1l112-13.6
			C305.1,125.7,308.2,121.6,307.7,117.2z"/>
	</g>
</g>
<g>
	<g>
		<path class="st0" d="M307.7,184.6c-0.5-4.4-4.5-7.6-9-7l-112,13.6c-4.4,0.3-7.8,4.1-7.5,8.5s4.1,7.8,8.5,7.5l0,0h1l112-13.6
			C305.1,193,308.2,189,307.7,184.6z"/>
	</g>
</g>
<g>
	<g>
		<path class="st0" d="M307.7,252c-0.5-4.4-4.5-7.6-9-7l-112,13.6c-4.4,0.3-7.8,4.1-7.5,8.5s4.1,7.8,8.5,7.5l0,0h1l112-13.6
			C305.1,260.4,308.2,256.4,307.7,252z"/>
	</g>
</g>
</svg>
