<?xml version="1.0" encoding="utf-8"?>
<!-- Generator: Adobe Illustrator 19.0.0, SVG Export Plug-In . SVG Version: 6.00 Build 0)  -->
<svg version="1.1" id="Capa_1" xmlns="http://www.w3.org/2000/svg" xmlns:xlink="http://www.w3.org/1999/xlink" x="0px" y="0px"
	 viewBox="-113 15 372 372" style="enable-background:new -113 15 372 372;" xml:space="preserve">
<style type="text/css">
	.st0{fill:#12ADE4;}
</style>
<g>
	<g>
		<path class="st0" d="M207,34.6H-61c-25.1,0-52,13.7-52,52v179.7c0,38.3,26.9,52,52,52h99.2v33.1H21.7c-4.4,0-8,3.6-8,8s3.6,8,8,8
			h105.6c4.4,0,8-3.6,8-8s-3.6-8-8-8h-19.5v-33.1H207c38.3,0,52-26.9,52-52V86.6C259,48.3,232.1,34.6,207,34.6z M91.8,351.4H54.2
			v-33.1h37.6L91.8,351.4L91.8,351.4z M243,266.3c0,10.8-3.5,36-36,36H-61c-10.8,0-36-3.5-36-36v-11.4h340V266.3z M243,238.9H-97
			v-152c0-32.5,25.2-36,36-36h268c10.8,0,36,3.5,36,36V238.9z"/>
	</g>
</g>
<g>
	<g>
		<path class="st0" d="M202.7,72.4c-3.5-2.7-8.5-1.9-11.2,1.6c0,0,0,0,0,0h0.4l-59.7,80l-28-36.4c-1.5-1.9-3.7-3-6.1-3.1
			c-2.4-0.1-4.7,0.9-6.2,2.7L46.3,169l-33.4-57.1c-1.4-2.4-4-3.9-6.8-3.9c-2.8,0-5.4,1.4-6.9,3.8L-56,201c-2.8,3.4-2.4,8.4,1,11.3
			c3.4,2.8,8.4,2.4,11.3-1c0.6-0.7,1-1.5,1.3-2.3l48-78.2l32,55.1c2.2,3.8,7.1,5.1,10.9,2.9c0.7-0.4,1.4-1,1.9-1.6L97,135.1
			l28.6,37.1c1.6,1.9,3.9,3,6.4,3.1c2.5,0,4.8-1.2,6.3-3.2l66-88.6C206.9,80,206.2,75,202.7,72.4z"/>
	</g>
</g>
</svg>
