<svg xmlns="http://www.w3.org/2000/svg" xmlns:xlink="http://www.w3.org/1999/xlink" id="Layer_1" x="0" y="0" enable-background="new 0 0 508 508" version="1.1" viewBox="0 0 508 508" xml:space="preserve"><style type="text/css">.st0{fill:#f3ebce}.st1{fill:#006094}.st2{fill:#a37250}.st2,.st3,.st4{fill-rule:evenodd;clip-rule:evenodd}.st3{fill:#ae805a}.st4{fill:#6b4e38}</style><rect width="508" height="508" class="st0"/><g><g><path d="M498.5,509.1c-5.4-80.4-19.8-156.2-71.9-175.6c-27.3-10.2-63.6-22-94.1-28.6c-7.8-5-14-6.8-15.5-7.2 c-0.2,0-0.3-0.1-0.3-0.1c0.1,2.4,0.2,4.8,0.2,7.2c0,2.7-0.2,5.4-0.4,8c-0.1,1-0.2,1.9-0.3,2.9c-0.3,2.7-0.7,5.4-1.2,8 c-10.3,11-28.5,22.3-58.5,22.3c-31,0-50.7-10.5-62.4-21.1c-0.5-2.8-1-5.7-1.3-8.6c-0.1-1.1-0.2-2.1-0.3-3.2 c-0.2-1.8-0.3-3.6-0.4-5.4c-0.2-3.4-0.1-6.8,0.1-10.2c0,0-0.2,0-0.4,0.1c-1.6,0.4-7.1,2.1-14.1,6.4c-29.9,6.2-65.9,18.3-94.2,28 c-48.2,16.6-66,94.2-73.2,177H498.5z" class="st1"/><path d="M315.1,259.4c-6.9,21.7-111.2,23.3-121.1-0.7l-3.6,56.2c40.9,27,85.5,26.2,127.4-0.4L315.1,259.4z" class="st2"/><path d="M334.9,160.4c0.2-10.4,1.5-19.7,1.4-30.1c-0.3-57.7-41.4-89-82.1-90.4c-40.8,1.4-81.8,32.7-82.1,90.4 c-0.1,10.4,1.1,19.7,1.4,30.1c-16.6-4.9-21.8,37.8-5.1,55.5c5.7,6,10.1,5.1,12.1,6.5c6,55.8,39.7,86.4,73.7,85 c34.1,1.3,67.8-29.2,73.7-85c2-1.4,6.4-0.5,12.1-6.5C356.6,198.2,351.4,155.5,334.9,160.4z" class="st3"/><path d="M254.2,410.5c15,0.6,81.9-79.6,63.1-106.7c-25.2,50.4-117.7,26.5-126.2,1.9 C173.8,325.8,239.6,409.9,254.2,410.5z" class="st0"/><path d="M334.9,160.4c0.3,4.4-14.4,40.4-14.4,56.3c0.8,3-11.8,18-14.8,15.6c-8.5-6.8-97.1-6.1-102.6,0 c-5.2,0.1-15.6-6.6-15.6-15.6c0-16-14.3-51.9-14-56.3c-5.1,20.3,3.5,54,3.5,54c0.5,2.5,1,4.9,1.4,7.2c4.5,23.6,7.6,42.5,14.5,56.5 c8.4,17,22.5,26.7,51.7,28.9c3,0.2,6.3,0.4,9.7,0.5c1.4,0,2.8,0,4.2,0c31.2-0.2,47.6-10.4,57.6-31c6.6-13.6,10.5-31.9,14-54.8 c0.4-2.4,0.7-4.8,1.1-7.2C333,200.2,340,180.7,334.9,160.4z M239,283.9c-3-0.7-6.1-1.4-9.2-2.2c-9.6-3.7-18.6-9.4-18.6-9.4 c-0.4-0.7-0.8-1.3-1.1-2.1c-4.2-9.3,1.3-21.3,9.7-25.2c2.2,0,30.1-2.5,31.8-2.5c1.6,0,34.9,2.5,37.1,2.5 c8.6,3.9,14.1,16.4,9.4,25.7c-0.2,0.5-0.5,1-0.8,1.5c0,0-8.4,5.7-18.1,9.4c-3.1,0.8-6.2,1.5-9.2,2.2 C255.1,279.9,253.7,280.1,239,283.9z" class="st4"/></g></g></svg>