<svg xmlns="http://www.w3.org/2000/svg" xmlns:xlink="http://www.w3.org/1999/xlink" id="Capa_1" x="0" y="0" enable-background="new -71 -27.3 455.3 455.3" version="1.1" viewBox="-71 -27.3 455.3 455.3" xml:space="preserve"><style type="text/css">.st0{fill:#12ade4}</style><g><g><path d="M383.1,205.3c-0.7-1.2-1.6-2.1-2.8-2.8h0.5L87,24.3c-2.5-1.4-5.5-1.4-8,0l-145.5,77.6c-4,2-5.6,6.8-3.6,10.7 c0.7,1.3,1.6,2.4,2.9,3.2l294.2,182.6c1.3,0.8,2.7,1.2,4.2,1.2c1.4,0,2.7-0.4,3.9-1l145.2-82.2C384.1,214,385.3,209.1,383.1,205.3 z M231.6,282.5l-278.4-173L82.6,40.3l277.9,168.9L231.6,282.5z" class="st0"/></g></g><g><g><path d="M383.2,244.3c-2.2-3.8-7.1-5.2-11-3h0.5l-141,80L-58.6,141.1c-3.8-2.4-8.7-1.3-11.1,2.5 c-2.4,3.8-1.3,8.7,2.5,11.1l294.2,182.6c1.3,0.8,2.7,1.2,4.2,1.2c1.4,0,2.7-0.4,3.9-1l145.2-82.2 C384.1,253,385.4,248.1,383.2,244.3z" class="st0"/></g></g><g><g><path d="M381.5,282.9c-2.1-2.6-5.6-3.7-8.8-2.6l-141.4,80L-58.6,180c-3.8-2.4-8.7-1.3-11.1,2.5 c-2.4,3.8-1.3,8.7,2.5,11.1l294.2,182.7c1.3,0.8,2.7,1.2,4.2,1.2c1.4,0,2.7-0.4,3.9-1l145.2-82.3 C383.7,291.4,384.3,286.3,381.5,282.9z" class="st0"/></g></g><g><g><path d="M202.7,118.4c-2.8-3.4-7.8-4-11.2-1.2c-0.2,0.2-0.4,0.4-0.6,0.6l-8.6,8c-2.7-2.4-5.7-4.4-9-5.9 c-4.3-2-9-2.8-13.7-2.2c-4.1,0.5-8,2.3-11.1,5c-3.2,2.7-5.3,6.5-6,10.6c-0.6,4.4-0.1,8.8,1.4,13c1.2,3.4,2.6,6.8,4.2,10.1 l-16,14.3c-0.2-0.6-0.4-1.1-0.5-1.7c-0.6-3.9-0.2-7.8,1.2-11.4c0.7-1.7,1-3.5,1.1-5.4c-0.1-1.8-0.8-3.5-2.1-4.7 c-1.4-1.8-3.6-2.9-5.8-3c-2.2-0.1-4.3,0.6-5.9,2.1c-2.7,2.5-4.4,5.9-5,9.5c-0.8,4.8-0.3,9.7,1.4,14.2c1.2,3.4,2.8,6.6,4.9,9.6 l-9.2,8c-3.3,2.9-3.6,8-0.7,11.3c1.5,1.7,3.7,2.7,6.1,2.7l-0.2,0.2c2,0,3.9-0.7,5.4-2l9-8c3,2.8,6.4,5.2,10,7.2 c9.2,5.2,20.8,3.8,28.5-3.6c2.7-2.3,4.6-5.5,5.4-9c0.8-3.9,0.6-8-0.4-11.8c-1.4-5.3-3.5-10.5-6.2-15.3v-0.5l13.3-11.9 c0.4,2.2,0.4,4.4,0,6.6c-0.5,2.4-0.7,4.9-0.6,7.4c0.1,1.9,0.9,3.8,2.2,5.2c1.5,1.9,3.7,3.2,6.2,3.5c2.1,0.1,4.3-0.6,5.8-2.1 c1.7-1.6,2.9-3.7,3.4-6c0.6-2.9,0.6-6,0-8.9c-0.7-3.8-1.9-7.4-3.8-10.8c-0.8-1.5-1.7-3-2.7-4.5l8.7-8 C204.9,126.9,205.5,121.9,202.7,118.4z M153.5,183.5c-2.1,1.6-4.8,2-7.3,1.2c-1.6-0.4-3.1-1.1-4.5-2l13.5-11.8 c0.6,1.5,1,3,1.4,4.6C157.1,178.5,155.9,181.6,153.5,183.5z M161.5,144.3c-0.4-1.2-0.6-2.5-0.7-3.8c-0.4-2.2,0.4-4.4,2.1-5.8 c1.9-1.6,4.5-2,6.8-1.2c0.8,0.3,1.6,0.6,2.3,1L161.5,144.3z" class="st0"/></g></g></svg>