<?xml version="1.0" encoding="utf-8"?>
<!-- Generator: Adobe Illustrator 19.0.0, SVG Export Plug-In . SVG Version: 6.00 Build 0)  -->
<svg version="1.1" id="Capa_1" xmlns="http://www.w3.org/2000/svg" xmlns:xlink="http://www.w3.org/1999/xlink" x="0px" y="0px"
	 viewBox="-68 -31.6 462.6 462.6" style="enable-background:new -68 -31.6 462.6 462.6;" xml:space="preserve">
<style type="text/css">
	.st0{fill:#12ADE4;}
</style>
<g>
	<g>
		<path class="st0" d="M354.2,84.7c0,0,0.1-0.3,0-0.5l-0.5-0.5C290,4.6,174.2-8.1,95,55.6c-3.3,2.6-6.5,5.4-9.6,8.2H-52
			c-8.8,0-16,7.2-16,16v130.3c0,8.8,7.2,16,16,16h79.6C42.1,327,135.6,397,236.5,382.5c46.1-6.6,87.9-30.4,117.2-66.6l0.5-0.4
			c0,0,0,0,0-0.6C408.1,247.6,408.1,152,354.2,84.7z M202.1,32v87.8c-17.5-0.4-34.9-2.5-51.9-6.2V79.4c-0.1-2.8-0.9-5.6-2.4-8
			C163.3,48.6,182.2,34.9,202.1,32z M202.1,191.8h-51.9V130c17.1,3.5,34.5,5.5,51.9,5.9V191.8z M151.4,41.7
			c-6.7,6.8-12.7,14.2-17.9,22.2h-22.9C123.1,54.6,136.9,47.1,151.4,41.7z M-51.6,210.2V79.8h139c0.9,0.2,1.8,0.2,2.7,0h44.4v130.3
			H96.1c-3.9-0.1-7.3,2.8-8,6.6L83,246.8l-16.6-32c-1.4-2.7-4.1-4.3-7.1-4.3L-51.6,210.2z M74.2,299.9c-16-21.9-26.5-47.3-30.6-74.2
			h10.9l25.3,49.4c1.4,2.7,4.1,4.3,7.1,4.3h1.2c3.4-0.5,6.1-3.2,6.6-6.6L100,242c1.9,13.5,4.8,26.9,8.6,40
			C96.6,286.8,85,292.8,74.2,299.9z M84.2,312.4c9.3-6,19.2-11.1,29.5-15.3c8.1,22.8,20.9,43.6,37.8,61
			C125.7,348.6,102.6,332.9,84.2,312.4z M202.1,367.8c-30.1-4.5-56.9-33.8-73-76.2c23.7-7.3,48.3-11.3,73-11.8V367.8z M202.1,263.8
			c-26.6,0.5-53.1,4.8-78.5,12.7c-4.9-16.6-8-33.6-9.5-50.8h20.2c8.8,0,16-7.2,16-16v-1.9h51.9L202.1,263.8z M345.8,99.9
			c19.8,26.7,31.1,58.7,32.6,91.9H323c-0.6-25.1-4.5-50-11.7-74.1C323.4,113,334.9,107,345.8,99.9z M335.6,87.8
			c-9.3,6-19.2,11-29.4,15.1c-8.1-22.7-20.9-43.4-37.6-60.8C294.3,51.7,317.3,67.4,335.6,87.8z M218.1,31.8
			c30.6,4.4,57.4,33.6,73.3,76.1c-23.7,7.4-48.4,11.4-73.3,11.9V31.8z M218.1,135.8c26.6-0.5,52.9-4.9,78.3-12.8
			c6.5,22.4,10,45.5,10.5,68.8h-88.8L218.1,135.8L218.1,135.8z M218.1,207.8h88.8c-0.5,23.3-4,46.4-10.5,68.8
			c-25.4-7.9-51.7-12.3-78.3-12.8V207.8z M218.1,367.8v-88c24.9,0.5,49.7,4.5,73.5,11.9C275.6,334.2,248.7,363.4,218.1,367.8z
			 M268.6,357.9c16.7-17.4,29.5-38.1,37.6-60.8c10.3,4,20.1,8.9,29.4,14.7C317.3,332.4,294.3,348.2,268.6,357.9z M345.7,299.7
			c-10.8-7.1-22.3-13.1-34.3-17.8c7.2-24.1,11.1-49,11.7-74.1h55.4C376.9,241,365.5,273,345.7,299.7z"/>
	</g>
</g>
</svg>
